<svg width="35" height="35" viewBox="0 0 35 35" fill="none" xmlns="http://www.w3.org/2000/svg">
<path d="M32.0834 17.5C32.0834 25.5541 25.5542 32.0833 17.5 32.0833M32.0834 17.5C32.0834 9.44584 25.5542 2.91666 17.5 2.91666M32.0834 17.5H2.91669M17.5 32.0833C9.44587 32.0833 2.91669 25.5541 2.91669 17.5M17.5 32.0833C21.1477 28.0899 23.2207 22.9074 23.3334 17.5C23.2207 12.0925 21.1477 6.91009 17.5 2.91666M17.5 32.0833C13.8523 28.0899 11.7793 22.9074 11.6667 17.5C11.7793 12.0925 13.8523 6.91009 17.5 2.91666M2.91669 17.5C2.91669 9.44584 9.44587 2.91666 17.5 2.91666" stroke="#AAD9D9" stroke-width="4" stroke-linecap="round" stroke-linejoin="round"/>
</svg>
