<svg width="40" height="40" viewBox="0 0 40 40" fill="none" xmlns="http://www.w3.org/2000/svg">
<path d="M26.6667 13.3333C29.3189 13.3333 31.8624 14.3869 33.7378 16.2622C35.6131 18.1376 36.6667 20.6811 36.6667 23.3333V35H30V23.3333C30 22.4493 29.6489 21.6014 29.0237 20.9763C28.3986 20.3512 27.5508 20 26.6667 20C25.7827 20 24.9348 20.3512 24.3097 20.9763C23.6846 21.6014 23.3334 22.4493 23.3334 23.3333V35H16.6667V23.3333C16.6667 20.6811 17.7203 18.1376 19.5956 16.2622C21.471 14.3869 24.0145 13.3333 26.6667 13.3333Z" stroke="#AAD9D9" stroke-width="4" stroke-linecap="round" stroke-linejoin="round"/>
<path d="M10 15H3.33337V35H10V15Z" stroke="#AAD9D9" stroke-width="4" stroke-linecap="round" stroke-linejoin="round"/>
<path d="M6.66671 9.99998C8.50766 9.99998 10 8.5076 10 6.66665C10 4.8257 8.50766 3.33331 6.66671 3.33331C4.82576 3.33331 3.33337 4.8257 3.33337 6.66665C3.33337 8.5076 4.82576 9.99998 6.66671 9.99998Z" stroke="#AAD9D9" stroke-width="4" stroke-linecap="round" stroke-linejoin="round"/>
</svg>
